{
    "asset" : {
        "generator" : "Khronos glTF Blender I/O v3.3.32",
        "version" : "2.0"
    },
    "scene" : 0,
    "scenes" : [
        {
            "name" : "Scene",
            "nodes" : [
                0,
                1,
                2
            ]
        }
    ],
    "nodes" : [
        {
            "mesh" : 0,
            "name" : "Cube",
            "scale" : [
                0.6992470622062683,
                1,
                1
            ]
        },
        {
            "name" : "Empty"
        },
        {
            "mesh" : 1,
            "name" : "18672_Thin_dragon_with_little_wings_v1",
            "translation" : [
                0,
                -0.10007677227258682,
                0.022770734503865242
            ]
        }
    ],
    "materials" : [
        {
            "doubleSided" : true,
            "name" : "Material",
            "pbrMetallicRoughness" : {
                "baseColorFactor" : [
                    0.33309853076934814,
                    0.8000000715255737,
                    0.7104960083961487,
                    1
                ],
                "metallicFactor" : 0,
                "roughnessFactor" : 0.5
            }
        },
        {
            "doubleSided" : true,
            "name" : "18672_Thin_dragon_with_little_wings",
            "pbrMetallicRoughness" : {
                "baseColorFactor" : [
                    0.800000011920929,
                    0.800000011920929,
                    0.800000011920929,
                    1
                ],
                "metallicFactor" : 0,
                "roughnessFactor" : 0.5
            }
        },
        {
            "doubleSided" : true,
            "name" : "Material.001",
            "pbrMetallicRoughness" : {
                "baseColorFactor" : [
                    0.005604670848697424,
                    0.005604670848697424,
                    0.005604670848697424,
                    1
                ],
                "metallicFactor" : 0,
                "roughnessFactor" : 0.5
            }
        },
        {
            "doubleSided" : true,
            "name" : "Material.002",
            "pbrMetallicRoughness" : {
                "baseColorFactor" : [
                    0.2879018485546112,
                    0.3776649832725525,
                    0.8000000715255737,
                    1
                ],
                "metallicFactor" : 0,
                "roughnessFactor" : 0.5
            }
        },
        {
            "doubleSided" : true,
            "name" : "Material.003",
            "pbrMetallicRoughness" : {
                "baseColorFactor" : [
                    0.07335264980792999,
                    0.18238329887390137,
                    0.3588410019874573,
                    1
                ],
                "metallicFactor" : 0,
                "roughnessFactor" : 0.5
            }
        },
        {
            "doubleSided" : true,
            "name" : "Material.004",
            "pbrMetallicRoughness" : {
                "baseColorFactor" : [
                    0.8000000715255737,
                    0.2900178134441376,
                    0.12307845801115036,
                    1
                ],
                "metallicFactor" : 0,
                "roughnessFactor" : 0.5
            }
        }
    ],
    "meshes" : [
        {
            "name" : "Cube",
            "primitives" : [
                {
                    "attributes" : {
                        "POSITION" : 0,
                        "NORMAL" : 1,
                        "TEXCOORD_0" : 2
                    },
                    "indices" : 3,
                    "material" : 0
                }
            ]
        },
        {
            "name" : "18672_Thin_dragon_with_little_wings_v1",
            "primitives" : [
                {
                    "attributes" : {
                        "POSITION" : 4,
                        "NORMAL" : 5,
                        "TEXCOORD_0" : 6
                    },
                    "indices" : 7,
                    "material" : 1
                },
                {
                    "attributes" : {
                        "POSITION" : 8,
                        "NORMAL" : 9,
                        "TEXCOORD_0" : 10
                    },
                    "indices" : 11,
                    "material" : 2
                },
                {
                    "attributes" : {
                        "POSITION" : 12,
                        "NORMAL" : 13,
                        "TEXCOORD_0" : 14
                    },
                    "indices" : 15,
                    "material" : 3
                },
                {
                    "attributes" : {
                        "POSITION" : 16,
                        "NORMAL" : 17,
                        "TEXCOORD_0" : 18
                    },
                    "indices" : 19,
                    "material" : 4
                },
                {
                    "attributes" : {
                        "POSITION" : 20,
                        "NORMAL" : 21,
                        "TEXCOORD_0" : 22
                    },
                    "indices" : 23,
                    "material" : 5
                }
            ]
        }
    ],
    "accessors" : [
        {
            "bufferView" : 0,
            "componentType" : 5126,
            "count" : 163,
            "max" : [
                2.5259881019592285,
                0.130845844745636,
                1.656383752822876
            ],
            "min" : [
                -2.5259881019592285,
                -0.7766311764717102,
                -1.656383752822876
            ],
            "type" : "VEC3"
        },
        {
            "bufferView" : 1,
            "componentType" : 5126,
            "count" : 163,
            "type" : "VEC3"
        },
        {
            "bufferView" : 2,
            "componentType" : 5126,
            "count" : 163,
            "type" : "VEC2"
        },
        {
            "bufferView" : 3,
            "componentType" : 5123,
            "count" : 720,
            "type" : "SCALAR"
        },
        {
            "bufferView" : 4,
            "componentType" : 5126,
            "count" : 170,
            "max" : [
                0.15401415526866913,
                0.24590766429901123,
                0.5474406480789185
            ],
            "min" : [
                -0.15407811105251312,
                0.18629103899002075,
                0.406194806098938
            ],
            "type" : "VEC3"
        },
        {
            "bufferView" : 5,
            "componentType" : 5126,
            "count" : 170,
            "type" : "VEC3"
        },
        {
            "bufferView" : 6,
            "componentType" : 5126,
            "count" : 170,
            "type" : "VEC2"
        },
        {
            "bufferView" : 7,
            "componentType" : 5123,
            "count" : 708,
            "type" : "SCALAR"
        },
        {
            "bufferView" : 8,
            "componentType" : 5126,
            "count" : 52,
            "max" : [
                0.13236336410045624,
                0.24590766429901123,
                0.5407012701034546
            ],
            "min" : [
                -0.13264094293117523,
                0.20467260479927063,
                0.4625309705734253
            ],
            "type" : "VEC3"
        },
        {
            "bufferView" : 9,
            "componentType" : 5126,
            "count" : 52,
            "type" : "VEC3"
        },
        {
            "bufferView" : 10,
            "componentType" : 5126,
            "count" : 52,
            "type" : "VEC2"
        },
        {
            "bufferView" : 11,
            "componentType" : 5123,
            "count" : 174,
            "type" : "SCALAR"
        },
        {
            "bufferView" : 12,
            "componentType" : 5126,
            "count" : 7112,
            "max" : [
                0.413707435131073,
                0.3149682283401489,
                1.5929625034332275
            ],
            "min" : [
                -0.41380611062049866,
                -0.6422193050384521,
                0.29241764545440674
            ],
            "type" : "VEC3"
        },
        {
            "bufferView" : 13,
            "componentType" : 5126,
            "count" : 7112,
            "type" : "VEC3"
        },
        {
            "bufferView" : 14,
            "componentType" : 5126,
            "count" : 7112,
            "type" : "VEC2"
        },
        {
            "bufferView" : 15,
            "componentType" : 5123,
            "count" : 37332,
            "type" : "SCALAR"
        },
        {
            "bufferView" : 16,
            "componentType" : 5126,
            "count" : 1123,
            "max" : [
                0.4304516017436981,
                0.005925685167312622,
                1.506244421005249
            ],
            "min" : [
                -0.4305891990661621,
                -0.4536764323711395,
                0.6661714911460876
            ],
            "type" : "VEC3"
        },
        {
            "bufferView" : 17,
            "componentType" : 5126,
            "count" : 1123,
            "type" : "VEC3"
        },
        {
            "bufferView" : 18,
            "componentType" : 5126,
            "count" : 1123,
            "type" : "VEC2"
        },
        {
            "bufferView" : 19,
            "componentType" : 5123,
            "count" : 6264,
            "type" : "SCALAR"
        },
        {
            "bufferView" : 20,
            "componentType" : 5126,
            "count" : 2966,
            "max" : [
                0.44357797503471375,
                0.39902082085609436,
                1.0448627471923828
            ],
            "min" : [
                -0.44361647963523865,
                -0.6452310085296631,
                0.11049318313598633
            ],
            "type" : "VEC3"
        },
        {
            "bufferView" : 21,
            "componentType" : 5126,
            "count" : 2966,
            "type" : "VEC3"
        },
        {
            "bufferView" : 22,
            "componentType" : 5126,
            "count" : 2966,
            "type" : "VEC2"
        },
        {
            "bufferView" : 23,
            "componentType" : 5123,
            "count" : 14910,
            "type" : "SCALAR"
        }
    ],
    "bufferViews" : [
        {
            "buffer" : 0,
            "byteLength" : 1956,
            "byteOffset" : 0,
            "target" : 34962
        },
        {
            "buffer" : 0,
            "byteLength" : 1956,
            "byteOffset" : 1956,
            "target" : 34962
        },
        {
            "buffer" : 0,
            "byteLength" : 1304,
            "byteOffset" : 3912,
            "target" : 34962
        },
        {
            "buffer" : 0,
            "byteLength" : 1440,
            "byteOffset" : 5216,
            "target" : 34963
        },
        {
            "buffer" : 0,
            "byteLength" : 2040,
            "byteOffset" : 6656,
            "target" : 34962
        },
        {
            "buffer" : 0,
            "byteLength" : 2040,
            "byteOffset" : 8696,
            "target" : 34962
        },
        {
            "buffer" : 0,
            "byteLength" : 1360,
            "byteOffset" : 10736,
            "target" : 34962
        },
        {
            "buffer" : 0,
            "byteLength" : 1416,
            "byteOffset" : 12096,
            "target" : 34963
        },
        {
            "buffer" : 0,
            "byteLength" : 624,
            "byteOffset" : 13512,
            "target" : 34962
        },
        {
            "buffer" : 0,
            "byteLength" : 624,
            "byteOffset" : 14136,
            "target" : 34962
        },
        {
            "buffer" : 0,
            "byteLength" : 416,
            "byteOffset" : 14760,
            "target" : 34962
        },
        {
            "buffer" : 0,
            "byteLength" : 348,
            "byteOffset" : 15176,
            "target" : 34963
        },
        {
            "buffer" : 0,
            "byteLength" : 85344,
            "byteOffset" : 15524,
            "target" : 34962
        },
        {
            "buffer" : 0,
            "byteLength" : 85344,
            "byteOffset" : 100868,
            "target" : 34962
        },
        {
            "buffer" : 0,
            "byteLength" : 56896,
            "byteOffset" : 186212,
            "target" : 34962
        },
        {
            "buffer" : 0,
            "byteLength" : 74664,
            "byteOffset" : 243108,
            "target" : 34963
        },
        {
            "buffer" : 0,
            "byteLength" : 13476,
            "byteOffset" : 317772,
            "target" : 34962
        },
        {
            "buffer" : 0,
            "byteLength" : 13476,
            "byteOffset" : 331248,
            "target" : 34962
        },
        {
            "buffer" : 0,
            "byteLength" : 8984,
            "byteOffset" : 344724,
            "target" : 34962
        },
        {
            "buffer" : 0,
            "byteLength" : 12528,
            "byteOffset" : 353708,
            "target" : 34963
        },
        {
            "buffer" : 0,
            "byteLength" : 35592,
            "byteOffset" : 366236,
            "target" : 34962
        },
        {
            "buffer" : 0,
            "byteLength" : 35592,
            "byteOffset" : 401828,
            "target" : 34962
        },
        {
            "buffer" : 0,
            "byteLength" : 23728,
            "byteOffset" : 437420,
            "target" : 34962
        },
        {
            "buffer" : 0,
            "byteLength" : 29820,
            "byteOffset" : 461148,
            "target" : 34963
        }
    ],
    "buffers" : [
        {
            "byteLength" : 490968,
            "uri" : "data:application/octet-stream;base64,"
        }
    ]
}
